<?xml version="1.0" encoding="utf-8"?>
<!-- Generator: Adobe Illustrator 15.0.0, SVG Export Plug-In . SVG Version: 6.00 Build 0)  -->
<!DOCTYPE svg PUBLIC "-//W3C//DTD SVG 1.1//EN" "http://www.w3.org/Graphics/SVG/1.1/DTD/svg11.dtd">
<svg version="1.1" id="Layer_1" xmlns="http://www.w3.org/2000/svg" xmlns:xlink="http://www.w3.org/1999/xlink" x="0px" y="0px"
	 width="248.944px" height="143.831px" viewBox="0 0 248.944 143.831" enable-background="new 0 0 248.944 143.831"
	 xml:space="preserve">
<g>
	<path fill="#010101" d="M136.202,53.893v8.084h-1.056v-8.084H136.202z"/>
	<path fill="#010101" d="M138.026,54.001c0.528-0.096,1.296-0.168,2.004-0.168c1.115,0,1.846,0.216,2.338,0.659
		c0.396,0.36,0.636,0.912,0.636,1.548c0,1.056-0.671,1.763-1.511,2.051v0.036c0.611,0.216,0.982,0.791,1.175,1.631
		c0.265,1.127,0.456,1.907,0.624,2.219h-1.08c-0.131-0.24-0.312-0.924-0.527-1.931c-0.24-1.115-0.684-1.535-1.631-1.571h-0.983
		v3.502h-1.044V54.001z M139.07,57.683h1.067c1.115,0,1.822-0.611,1.822-1.535c0-1.043-0.755-1.499-1.858-1.499
		c-0.504,0-0.852,0.036-1.031,0.084V57.683z"/>
	<path fill="#010101" d="M151.127,61.772c-0.275,0.132-0.887,0.336-1.666,0.336c-1.752,0-2.891-1.188-2.891-2.962
		c0-1.787,1.223-3.095,3.118-3.095c0.624,0,1.175,0.156,1.463,0.312l-0.239,0.804c-0.252-0.132-0.648-0.275-1.224-0.275
		c-1.331,0-2.052,0.995-2.052,2.194c0,1.344,0.864,2.171,2.016,2.171c0.6,0,0.996-0.144,1.295-0.275L151.127,61.772z"/>
	<path fill="#010101" d="M157.547,59.026c0,2.146-1.499,3.082-2.891,3.082c-1.559,0-2.782-1.151-2.782-2.986
		c0-1.931,1.284-3.07,2.878-3.07C156.42,56.052,157.547,57.263,157.547,59.026z M152.954,59.086c0,1.271,0.721,2.231,1.752,2.231
		c1.007,0,1.763-0.948,1.763-2.255c0-0.983-0.491-2.219-1.739-2.219C153.494,56.844,152.954,57.995,152.954,59.086z"/>
	<path fill="#010101" d="M163.883,53.461v7.017c0,0.516,0.024,1.104,0.049,1.499h-0.936l-0.049-1.008h-0.035
		c-0.313,0.648-1.008,1.14-1.955,1.14c-1.403,0-2.495-1.188-2.495-2.95c-0.012-1.931,1.2-3.106,2.603-3.106
		c0.9,0,1.487,0.42,1.752,0.876h0.023v-3.467H163.883z M162.84,58.534c0-0.132-0.012-0.312-0.049-0.443
		c-0.155-0.66-0.73-1.212-1.522-1.212c-1.091,0-1.739,0.96-1.739,2.231c0,1.175,0.588,2.146,1.715,2.146
		c0.708,0,1.355-0.479,1.547-1.259c0.037-0.145,0.049-0.288,0.049-0.456V58.534z"/>
	<path fill="#010101" d="M166.239,59.266c0.023,1.428,0.923,2.016,1.99,2.016c0.756,0,1.223-0.132,1.607-0.3l0.191,0.755
		c-0.371,0.168-1.02,0.372-1.943,0.372c-1.787,0-2.854-1.188-2.854-2.938s1.031-3.118,2.723-3.118c1.906,0,2.398,1.655,2.398,2.723
		c0,0.216-0.012,0.372-0.036,0.491H166.239z M169.333,58.511c0.012-0.66-0.275-1.703-1.463-1.703c-1.08,0-1.535,0.972-1.619,1.703
		H169.333z"/>
	<path fill="#010101" d="M142.575,75.31c0.323,0.191,0.875,0.408,1.402,0.408c0.756,0,1.115-0.372,1.115-0.864
		c0-0.504-0.299-0.768-1.066-1.055c-1.056-0.384-1.547-0.948-1.547-1.644c0-0.936,0.768-1.703,2.002-1.703
		c0.588,0,1.104,0.156,1.416,0.36l-0.252,0.768c-0.229-0.145-0.648-0.349-1.188-0.349c-0.624,0-0.959,0.36-0.959,0.792
		c0,0.479,0.335,0.695,1.091,0.995c0.995,0.372,1.522,0.876,1.522,1.739c0,1.031-0.803,1.751-2.158,1.751
		c-0.636,0-1.223-0.168-1.631-0.407L142.575,75.31z"/>
	<path fill="#010101" d="M148.058,73.666c0.024,1.428,0.923,2.016,1.991,2.016c0.755,0,1.223-0.132,1.606-0.3l0.192,0.755
		c-0.372,0.168-1.02,0.372-1.943,0.372c-1.787,0-2.854-1.188-2.854-2.938s1.032-3.118,2.723-3.118c1.907,0,2.399,1.655,2.399,2.723
		c0,0.216-0.013,0.372-0.037,0.491H148.058z M151.153,72.911c0.012-0.66-0.276-1.703-1.464-1.703c-1.079,0-1.535,0.972-1.619,1.703
		H151.153z"/>
	<path fill="#010101" d="M153.482,72.144c0-0.612-0.012-1.092-0.048-1.571h0.936l0.06,0.959h0.024
		c0.287-0.539,0.959-1.079,1.919-1.079c0.804,0,2.051,0.479,2.051,2.471v3.454h-1.056v-3.346c0-0.936-0.348-1.716-1.344-1.716
		c-0.684,0-1.223,0.492-1.414,1.08c-0.049,0.132-0.072,0.312-0.072,0.491v3.49h-1.056V72.144z"/>
	<path fill="#010101" d="M161.366,69.181v1.392h1.511v0.804h-1.511v3.13c0,0.72,0.203,1.128,0.791,1.128
		c0.287,0,0.455-0.024,0.611-0.072l0.049,0.804c-0.205,0.071-0.528,0.144-0.936,0.144c-0.492,0-0.889-0.168-1.141-0.443
		c-0.287-0.324-0.407-0.84-0.407-1.523v-3.166h-0.899v-0.804h0.899v-1.079L161.366,69.181z"/>
</g>
<g>
	<path fill="#010101" d="M87.197,28.459v3.383h3.91v-3.383h1.056v8.084h-1.056v-3.79h-3.91v3.79h-1.056v-8.084H87.197z"/>
	<path fill="#010101" d="M94.529,33.832c0.024,1.428,0.923,2.016,1.991,2.016c0.755,0,1.223-0.132,1.607-0.3l0.192,0.755
		c-0.372,0.168-1.019,0.372-1.943,0.372c-1.787,0-2.854-1.188-2.854-2.938s1.032-3.118,2.723-3.118c1.907,0,2.399,1.655,2.399,2.723
		c0,0.216-0.012,0.372-0.036,0.491H94.529z M97.624,33.077c0.012-0.66-0.276-1.703-1.463-1.703c-1.08,0-1.535,0.972-1.619,1.703
		H97.624z"/>
	<path fill="#010101" d="M100.337,30.738l1.259,3.43c0.144,0.384,0.288,0.84,0.384,1.188h0.024c0.108-0.348,0.228-0.791,0.372-1.211
		l1.151-3.406h1.115l-1.583,4.138c-0.756,1.991-1.271,2.998-1.991,3.634c-0.527,0.444-1.031,0.624-1.295,0.672l-0.264-0.876
		c0.264-0.084,0.612-0.252,0.924-0.516c0.288-0.228,0.635-0.636,0.887-1.175c0.048-0.108,0.084-0.192,0.084-0.252
		c0-0.061-0.024-0.145-0.084-0.276l-2.135-5.349H100.337z"/>
	<path fill="#010101" d="M114.35,36.184c-0.468,0.18-1.403,0.443-2.495,0.443c-1.224,0-2.231-0.312-3.022-1.067
		c-0.695-0.672-1.127-1.751-1.127-3.011c0-2.41,1.667-4.174,4.378-4.174c0.935,0,1.679,0.204,2.027,0.372l-0.264,0.852
		c-0.432-0.204-0.971-0.348-1.787-0.348c-1.967,0-3.25,1.224-3.25,3.25c0,2.051,1.223,3.263,3.118,3.263
		c0.684,0,1.151-0.097,1.391-0.216v-2.411h-1.631v-0.84h2.663V36.184z"/>
	<path fill="#010101" d="M121.214,33.593c0,2.146-1.499,3.082-2.89,3.082c-1.559,0-2.783-1.151-2.783-2.986
		c0-1.931,1.284-3.07,2.878-3.07C120.087,30.618,121.214,31.829,121.214,33.593z M116.621,33.652c0,1.271,0.72,2.231,1.751,2.231
		c1.007,0,1.763-0.948,1.763-2.255c0-0.983-0.492-2.219-1.739-2.219C117.16,31.41,116.621,32.562,116.621,33.652z"/>
	<path fill="#010101" d="M127.802,33.593c0,2.146-1.499,3.082-2.89,3.082c-1.559,0-2.783-1.151-2.783-2.986
		c0-1.931,1.284-3.07,2.878-3.07C126.675,30.618,127.802,31.829,127.802,33.593z M123.208,33.652c0,1.271,0.72,2.231,1.751,2.231
		c1.007,0,1.763-0.948,1.763-2.255c0-0.983-0.492-2.219-1.739-2.219C123.748,31.41,123.208,32.562,123.208,33.652z"/>
	<path fill="#010101" d="M134.102,35.691c0,1.344-0.275,2.146-0.828,2.662c-0.575,0.517-1.391,0.696-2.122,0.696
		c-0.696,0-1.463-0.168-1.931-0.479l0.264-0.816c0.384,0.252,0.984,0.468,1.704,0.468c1.079,0,1.871-0.563,1.871-2.038v-0.636
		h-0.024c-0.312,0.539-0.948,0.971-1.847,0.971c-1.439,0-2.471-1.223-2.471-2.83c0-1.967,1.284-3.07,2.627-3.07
		c1.007,0,1.547,0.516,1.811,0.995h0.023l0.036-0.875h0.936c-0.036,0.407-0.048,0.888-0.048,1.583V35.691z M133.046,33.029
		c0-0.181-0.012-0.336-0.06-0.468c-0.191-0.624-0.695-1.128-1.476-1.128c-1.007,0-1.727,0.852-1.727,2.195
		c0,1.139,0.588,2.087,1.715,2.087c0.659,0,1.247-0.408,1.463-1.08c0.06-0.18,0.084-0.384,0.084-0.563V33.029z"/>
	<path fill="#010101" d="M135.844,28.027h1.056v8.516h-1.056V28.027z"/>
	<path fill="#010101" d="M139.263,33.832c0.024,1.428,0.924,2.016,1.991,2.016c0.756,0,1.224-0.132,1.607-0.3l0.191,0.755
		c-0.372,0.168-1.02,0.372-1.942,0.372c-1.787,0-2.854-1.188-2.854-2.938s1.031-3.118,2.723-3.118c1.906,0,2.398,1.655,2.398,2.723
		c0,0.216-0.012,0.372-0.036,0.491H139.263z M142.358,33.077c0.012-0.66-0.276-1.703-1.463-1.703c-1.08,0-1.535,0.972-1.619,1.703
		H142.358z"/>
	<path fill="#010101" d="M91.791,50.691c-0.372,0.192-1.151,0.384-2.135,0.384c-2.279,0-3.982-1.439-3.982-4.102
		c0-2.543,1.715-4.246,4.222-4.246c0.996,0,1.643,0.216,1.919,0.36l-0.264,0.852c-0.384-0.192-0.948-0.336-1.619-0.336
		c-1.895,0-3.154,1.211-3.154,3.334c0,1.991,1.139,3.25,3.094,3.25c0.647,0,1.295-0.132,1.715-0.336L91.791,50.691z"/>
	<path fill="#010101" d="M93.114,42.979c0.636-0.107,1.391-0.18,2.219-0.18c1.499,0,2.566,0.359,3.274,1.008
		c0.732,0.659,1.151,1.595,1.151,2.902c0,1.319-0.419,2.398-1.163,3.142c-0.768,0.756-2.015,1.164-3.586,1.164
		c-0.756,0-1.368-0.036-1.895-0.097V42.979z M94.157,50.128c0.264,0.036,0.647,0.048,1.055,0.048c2.243,0,3.442-1.247,3.442-3.43
		c0.012-1.907-1.067-3.119-3.274-3.119c-0.54,0-0.947,0.049-1.223,0.108V50.128z"/>
	<path fill="#010101" d="M103.649,42.956c0.503-0.084,1.163-0.156,2.003-0.156c1.031,0,1.787,0.24,2.267,0.672
		c0.432,0.384,0.708,0.972,0.708,1.69c0,0.732-0.216,1.308-0.624,1.728c-0.564,0.588-1.451,0.888-2.471,0.888
		c-0.312,0-0.6-0.013-0.839-0.072v3.238h-1.043V42.956z M104.693,46.854c0.228,0.061,0.516,0.084,0.863,0.084
		c1.259,0,2.027-0.624,2.027-1.715c0-1.079-0.768-1.596-1.907-1.596c-0.456,0-0.804,0.036-0.983,0.084V46.854z"/>
	<path fill="#010101" d="M109.937,42.428h1.056v8.516h-1.056V42.428z"/>
	<path fill="#010101" d="M116.847,49.552c0,0.504,0.024,0.996,0.084,1.392h-0.947l-0.084-0.731h-0.036
		c-0.324,0.456-0.947,0.863-1.775,0.863c-1.175,0-1.775-0.827-1.775-1.667c0-1.403,1.247-2.171,3.49-2.159V47.13
		c0-0.468-0.132-1.344-1.319-1.332c-0.551,0-1.115,0.156-1.523,0.432l-0.24-0.707c0.479-0.3,1.188-0.504,1.919-0.504
		c1.775,0,2.207,1.211,2.207,2.362V49.552z M115.828,47.981c-1.151-0.024-2.459,0.18-2.459,1.307c0,0.696,0.456,1.008,0.983,1.008
		c0.768,0,1.259-0.479,1.427-0.972c0.036-0.12,0.048-0.24,0.048-0.336V47.981z"/>
	<path fill="#010101" d="M118.841,45.139l1.259,3.43c0.144,0.384,0.288,0.84,0.384,1.188h0.024c0.108-0.348,0.228-0.791,0.372-1.211
		l1.151-3.406h1.115l-1.583,4.138c-0.756,1.991-1.271,2.998-1.991,3.634c-0.527,0.444-1.031,0.624-1.295,0.672l-0.264-0.876
		c0.264-0.084,0.612-0.252,0.924-0.516c0.288-0.228,0.635-0.636,0.887-1.175c0.048-0.108,0.084-0.192,0.084-0.252
		c0-0.061-0.024-0.145-0.084-0.276l-2.135-5.349H118.841z"/>
</g>
<g id="bubble1">
	<path fill-rule="evenodd" clip-rule="evenodd" fill="#0895B5" d="M117.376,2.449c1.843,0,3.686,0,5.529,0
		c22.228,2.345,39.416,12.186,42.848,31.789c-4.365-1.759-4.022-6.447-5.99-9.675c-6.881-11.292-19.678-17.384-36.396-18.89
		c-1.096-0.765-5.355-0.765-6.45,0C98.208,6.883,78.493,17.529,76.372,36.082c-1.707,14.926,8.156,25.915,16.586,32.25
		c-1.75,5.315-3.876,10.253-5.528,15.666c5.865-0.791,9.682-10.072,16.586-11.059c3.988-0.569,7.604,2.178,12.9,1.844
		c1.154,0.995,4.443-0.145,4.607,1.843c-0.205,1.331-3.481-0.409-3.686,0.921c-4.653-0.414-9.256-0.88-13.361-1.843
		c-7.58,4.552-12.878,11.387-21.654,14.743c0.583-6.844,4.573-14.123,6.911-20.732c-7.331-6.951-15.044-13.521-16.125-26.723
		c0-2.149,0-4.3,0-6.449C77.677,14.658,94.181,5.207,117.376,2.449z"/>
	<path fill-rule="evenodd" clip-rule="evenodd" fill="#0895B5" d="M116.916,74.783c3.312-0.549,4.968,0.561,5.529,2.764
		c-1.536,0-3.071,0-4.607,0c0.205-1.33,3.481,0.41,3.686-0.921C121.359,74.639,118.069,75.778,116.916,74.783z"/>
	<path fill-rule="evenodd" clip-rule="evenodd" fill="#0895B5" d="M116.916,5.674c1.095-0.765,5.354-0.765,6.45,0
		C121.216,5.674,119.065,5.674,116.916,5.674z"/>
	<path fill-rule="evenodd" clip-rule="evenodd" fill="#0895B5" d="M73.607,36.543c0,2.149,0,4.3,0,6.449c-0.154,0-0.307,0-0.461,0
		c0-2.149,0-4.3,0-6.449C73.3,36.543,73.454,36.543,73.607,36.543z"/>
</g>
<g id="bubble2">
	<path fill-rule="evenodd" clip-rule="evenodd" fill="#0895B5" d="M150.548,40.229c1.55-0.766,6.282-0.766,7.833,0
		C155.77,40.229,153.159,40.229,150.548,40.229z"/>
	<path fill-rule="evenodd" clip-rule="evenodd" fill="#0895B5" d="M122.905,60.039c0.765,0.945,0.765,5.045,0,5.99
		C122.905,64.032,122.905,62.035,122.905,60.039z"/>
	<path fill-rule="evenodd" clip-rule="evenodd" fill="#0895B5" d="M125.669,60.039c0,1.844,0,3.687,0,5.529
		C124.905,64.773,124.905,60.834,125.669,60.039z"/>
	<path fill-rule="evenodd" clip-rule="evenodd" fill="#0895B5" d="M122.905,60.039c3.51-30.459,63.923-29.604,63.58,3.687
		c0,0.46,0,0.921,0,1.382c-0.861,7.432-4.152,12.435-9.215,15.665c0.516,5.411,4.107,11.831,2.765,16.125c-0.46,0-0.921,0-1.382,0
		c-3.348-1.356-9.541-8.453-13.822-9.214c-2.822-0.502-6.042,0.836-8.754,0.921c-15.466,0.487-30.721-7.798-33.172-22.575
		C123.669,65.084,123.669,60.984,122.905,60.039z M150.548,40.229c-0.281,0.025-0.546,0.068-0.461,0.461
		c-12.489,1.793-21.137,7.428-23.958,18.89c-0.281,0.026-0.545,0.068-0.461,0.46c-0.764,0.795-0.764,4.734,0,5.529
		c0.026,0.281,0.069,0.545,0.461,0.461c2.738,12.158,11.894,17.898,25.339,19.35c0.795,0.765,4.734,0.765,5.529,0
		c10.23-3.379,14.473,4.111,20.271,5.99c-1.49-3.578-2.027-8.109-3.225-11.979c7.042-3.758,11.657-12.015,8.754-22.115
		c-2.629-9.148-13.672-15.393-23.497-16.586c-0.102-0.359-0.386-0.536-0.921-0.461C156.831,39.463,152.098,39.463,150.548,40.229z"
		/>
	<path fill-rule="evenodd" clip-rule="evenodd" fill="#0895B5" d="M151.469,85.379c1.844,0,3.687,0,5.529,0
		C156.204,86.144,152.264,86.144,151.469,85.379z"/>
	<path fill-rule="evenodd" clip-rule="evenodd" fill="#0895B5" d="M150.548,40.229c2.61,0,5.222,0,7.833,0
		c0.535-0.075,0.819,0.102,0.921,0.461c-3.071,0-6.144,0-9.215,0C150.002,40.297,150.267,40.254,150.548,40.229z"/>
	<path fill-rule="evenodd" clip-rule="evenodd" fill="#0895B5" d="M126.13,59.579c0,2.149,0,4.3,0,6.45
		c-0.392,0.084-0.435-0.18-0.461-0.461c0-1.843,0-3.686,0-5.529C125.584,59.647,125.849,59.605,126.13,59.579z"/>
</g>
<g>
	<path fill-rule="evenodd" clip-rule="evenodd" fill="#BC7858" d="M9.736,45.629c0.851,0,1.701,0,2.552,0
		c-0.281,4.258,0.564,9.641-0.425,13.188c-0.426,0-0.851,0-1.276,0C8.635,56.089,10.278,49.767,9.736,45.629z"/>
	<path fill-rule="evenodd" clip-rule="evenodd" fill="#BC7858" d="M17.818,45.629c0.851,0,1.702,0,2.553,0
		c-0.282,4.258,0.564,9.641-0.425,13.188c-0.426,0-0.851,0-1.276,0C16.718,56.089,18.36,49.767,17.818,45.629z"/>
	<path fill-rule="evenodd" clip-rule="evenodd" fill="#973D22" d="M35.686,80.088c4.675-0.955,3.975,7.871,0.851,8.083
		C32.953,88.416,32.339,80.772,35.686,80.088z"/>
	<path fill-rule="evenodd" clip-rule="evenodd" fill="#973D22" d="M56.957,80.088c4.675-0.955,3.976,7.871,0.851,8.083
		C54.223,88.416,53.609,80.772,56.957,80.088z"/>
	<path fill-rule="evenodd" clip-rule="evenodd" fill="#BC7858" d="M51,95.828c0.004,2.68-7.475,2.313-8.083,0.426
		C43.137,93.629,50.177,93.996,51,95.828z"/>
	<path fill-rule="evenodd" clip-rule="evenodd" fill="#BC7858" d="M36.537,103.912c6.949,0,13.897,0,20.845,0
		C55.336,111.306,38.583,111.306,36.537,103.912z"/>
	<path fill-rule="evenodd" clip-rule="evenodd" fill="#2D6C9C" d="M70.996,141.348c-0.993,0-1.985,0-2.978,0
		c0-3.544,0-7.091,0-10.636c0.993,0,1.985,0,2.978,0C70.996,134.257,70.996,137.804,70.996,141.348z"/>
	<path fill-rule="evenodd" clip-rule="evenodd" fill="#D5AB89" d="M25.476,75.834c1.632-3.474,3.934-6.276,6.807-8.509
		c3.069,1.754,4.747,4.896,9.36,5.105c1.315,0.04,1.267-1.285,1.276-2.553c2.588,1.524,3.915,4.31,7.232,5.105
		c1.088-1.616-0.771-3.307-0.851-5.105c4.078,2.729,10.16,3.454,16.591,3.828c1.928,2.894,2.907,6.736,5.53,8.935
		c1.699-1.137,1.757-3.916,2.127-6.381c2.831,2.975,2.635,13.095-2.552,13.188c-0.354,12.976-6.435,20.225-16.167,23.823
		c0,1.418,0,2.837,0,4.254c2.803,13.739-18.542,13.739-15.74,0c0-1.276,0-2.554,0-3.829c-6.897-3.028-12.034-7.819-14.89-14.89
		C24.434,90.957,25.077,83.518,25.476,75.834z M36.537,88.171c3.125-0.212,3.824-9.038-0.851-8.083
		C32.339,80.772,32.953,88.416,36.537,88.171z M57.807,88.171c3.125-0.212,3.825-9.038-0.851-8.083
		C53.609,80.772,54.223,88.416,57.807,88.171z M42.918,96.254c0.608,1.888,8.086,2.254,8.083-0.426
		C50.177,93.996,43.137,93.629,42.918,96.254z M57.382,103.912c-6.948,0-13.896,0-20.845,0
		C38.583,111.306,55.336,111.306,57.382,103.912z"/>
	<path fill-rule="evenodd" clip-rule="evenodd" fill="#973D22" d="M29.73,52.862c16.492-10.854,44.198-2.611,44.243,18.293
		c-0.973,0.728-0.156,3.246-0.425,4.679c0,0.143,0,0.283,0,0.426c-0.37,2.465-0.428,5.244-2.127,6.381
		c-2.623-2.198-3.603-6.041-5.53-8.935c-6.432-0.374-12.513-1.1-16.591-3.828c0.079,1.799,1.939,3.489,0.851,5.105
		c-3.317-0.796-4.644-3.581-7.232-5.105c-0.009,1.268,0.04,2.593-1.276,2.553c-4.613-0.209-6.291-3.352-9.36-5.105
		c-2.873,2.232-5.174,5.035-6.807,8.509c0.051-1.226-0.232-2.785,0.426-3.403c0.034-8.19,7.076-9.372,7.658-17.017
		C33.056,53.791,32.123,52.595,29.73,52.862z"/>
	<path fill-rule="evenodd" clip-rule="evenodd" fill="#D5AB89" d="M8.459,45.629c0.425,0,0.851,0,1.276,0
		c0.542,4.138-1.101,10.46,0.851,13.188c0.425,0,0.851,0,1.276,0c0.99-3.548,0.144-8.931,0.425-13.188c1.844,0,3.687,0,5.53,0
		c0.542,4.138-1.101,10.46,0.851,13.188c0.425,0,0.851,0,1.276,0c0.989-3.548,0.144-8.931,0.425-13.188c0.425,0,0.851,0,1.276,0
		c3.565,0.975,4.307,4.77,3.829,9.785c1.643,1.058,2.237-2.571,4.254-2.552c2.393-0.268,3.326,0.929,3.829,2.552
		c-0.582,7.645-7.624,8.826-7.658,17.017c-3.446,0-6.171,0-10.636,0c-1.926,0-9.326-1.31-10.635,0c-0.777,0.777,0,9.523,0,11.486
		c0,11.088,0,25.217,0,34.458c-0.697-13.331-0.706-32.101,0-47.646C5.042,61.665,2.005,48.228,8.459,45.629z"/>
	<path fill-rule="evenodd" clip-rule="evenodd" fill="#438AC2" d="M4.631,118.375c0-9.241,0-23.37,0-34.458
		c0-1.963-0.777-10.709,0-11.486c1.309-1.31,8.709,0,10.635,0c4.465,0,7.19,0,10.636,0c-0.658,0.618-0.375,2.178-0.426,3.403
		c-0.399,7.684-1.042,15.123-1.276,22.972c-0.76,5.764-0.639,12.409-1.276,18.293c4.54,0.991,10.917,0.144,16.166,0.426
		c-2.803,13.739,18.543,13.739,15.74,0c9.469,0.828,18.414-2.072,23.398,2.553c4.737,4.395,3.057,11.986,3.403,21.271
		c-3.545,0-7.09,0-10.635,0c0-3.544,0-7.091,0-10.636c-0.993,0-1.985,0-2.978,0c0,3.545,0,7.092,0,10.636
		c-15.032,0-30.062,0-45.094,0C11.179,139.337,5.505,131.257,4.631,118.375z"/>
	<path fill-rule="evenodd" clip-rule="evenodd" fill="#BC7858" d="M73.973,71.155c-0.27,1.433,0.548,3.951-0.425,4.679
		C73.817,74.401,73,71.883,73.973,71.155z"/>
</g>
<g enable-background="new    ">
	<path fill="#4079BD" d="M202.939,9.997V8.309h4.361v3.992c-0.424,0.41-1.038,0.771-1.842,1.083
		c-0.805,0.313-1.619,0.469-2.444,0.469c-1.048,0-1.962-0.22-2.741-0.66c-0.779-0.439-1.365-1.068-1.757-1.887
		c-0.392-0.817-0.588-1.707-0.588-2.669c0-1.044,0.219-1.971,0.656-2.782s1.078-1.434,1.921-1.866
		c0.643-0.333,1.442-0.499,2.399-0.499c1.244,0,2.216,0.261,2.915,0.783c0.7,0.521,1.15,1.242,1.351,2.163l-2.01,0.376
		c-0.142-0.492-0.407-0.881-0.796-1.166c-0.391-0.284-0.877-0.427-1.46-0.427c-0.884,0-1.587,0.28-2.108,0.841
		c-0.522,0.561-0.783,1.393-0.783,2.495c0,1.189,0.265,2.081,0.793,2.677c0.528,0.594,1.222,0.892,2.078,0.892
		c0.424,0,0.849-0.083,1.275-0.249c0.426-0.167,0.791-0.368,1.097-0.605V9.997H202.939z"/>
	<path fill="#4079BD" d="M208.708,9.949c0-0.638,0.157-1.256,0.472-1.853s0.76-1.053,1.337-1.367
		c0.576-0.314,1.22-0.472,1.931-0.472c1.099,0,1.998,0.356,2.7,1.069c0.702,0.714,1.053,1.615,1.053,2.704
		c0,1.099-0.354,2.009-1.063,2.731c-0.709,0.722-1.602,1.083-2.677,1.083c-0.665,0-1.3-0.15-1.903-0.451
		c-0.604-0.301-1.063-0.741-1.378-1.323C208.866,11.491,208.708,10.783,208.708,9.949z M210.677,10.052
		c0,0.72,0.171,1.271,0.513,1.654s0.764,0.574,1.265,0.574s0.922-0.191,1.262-0.574c0.339-0.383,0.509-0.938,0.509-1.668
		c0-0.711-0.17-1.258-0.509-1.641c-0.34-0.383-0.761-0.574-1.262-0.574s-0.923,0.191-1.265,0.574S210.677,9.332,210.677,10.052z"/>
	<path fill="#4079BD" d="M217.26,9.949c0-0.638,0.157-1.256,0.472-1.853s0.76-1.053,1.336-1.367
		c0.577-0.314,1.221-0.472,1.932-0.472c1.099,0,1.998,0.356,2.7,1.069c0.702,0.714,1.053,1.615,1.053,2.704
		c0,1.099-0.354,2.009-1.063,2.731c-0.708,0.722-1.601,1.083-2.676,1.083c-0.665,0-1.3-0.15-1.904-0.451
		c-0.604-0.301-1.063-0.741-1.377-1.323C217.417,11.491,217.26,10.783,217.26,9.949z M219.229,10.052
		c0,0.72,0.171,1.271,0.513,1.654s0.764,0.574,1.265,0.574s0.922-0.191,1.261-0.574c0.34-0.383,0.51-0.938,0.51-1.668
		c0-0.711-0.17-1.258-0.51-1.641c-0.339-0.383-0.76-0.574-1.261-0.574s-0.923,0.191-1.265,0.574S219.229,9.332,219.229,10.052z"/>
	<path fill="#4079BD" d="M226.079,14.16l2.194,0.267c0.036,0.255,0.121,0.431,0.253,0.526c0.183,0.137,0.47,0.205,0.861,0.205
		c0.501,0,0.877-0.075,1.128-0.226c0.169-0.101,0.296-0.262,0.383-0.485c0.06-0.159,0.089-0.453,0.089-0.882v-1.06
		c-0.574,0.784-1.299,1.176-2.174,1.176c-0.976,0-1.748-0.412-2.317-1.237c-0.446-0.651-0.67-1.463-0.67-2.434
		c0-1.217,0.293-2.146,0.879-2.789c0.585-0.643,1.313-0.964,2.184-0.964c0.897,0,1.639,0.395,2.222,1.183V6.422h1.798v6.515
		c0,0.856-0.07,1.497-0.212,1.921s-0.34,0.757-0.595,0.998s-0.596,0.431-1.021,0.567c-0.427,0.137-0.966,0.205-1.617,0.205
		c-1.23,0-2.104-0.211-2.618-0.633c-0.515-0.421-0.772-0.955-0.772-1.603C226.072,14.329,226.074,14.251,226.079,14.16z
		 M227.794,9.901c0,0.771,0.149,1.334,0.447,1.691c0.299,0.358,0.667,0.537,1.104,0.537c0.47,0,0.866-0.184,1.189-0.551
		c0.323-0.366,0.485-0.91,0.485-1.63c0-0.752-0.155-1.311-0.465-1.675s-0.702-0.547-1.176-0.547c-0.46,0-0.84,0.179-1.139,0.537
		C227.944,8.622,227.794,9.168,227.794,9.901z"/>
	<path fill="#4079BD" d="M234.808,13.682V3.66h1.921v10.021H234.808z"/>
	<path fill="#4079BD" d="M242.902,11.371l1.914,0.321c-0.246,0.702-0.635,1.236-1.166,1.604c-0.53,0.366-1.194,0.55-1.992,0.55
		c-1.263,0-2.196-0.412-2.803-1.237c-0.479-0.661-0.718-1.495-0.718-2.502c0-1.203,0.314-2.146,0.943-2.826
		c0.629-0.682,1.424-1.022,2.386-1.022c1.08,0,1.933,0.356,2.557,1.069c0.624,0.714,0.923,1.807,0.896,3.278h-4.813
		c0.014,0.569,0.169,1.013,0.465,1.329c0.296,0.317,0.665,0.476,1.107,0.476c0.301,0,0.554-0.082,0.759-0.246
		S242.797,11.735,242.902,11.371z M243.011,9.43c-0.014-0.556-0.157-0.979-0.431-1.269c-0.273-0.289-0.606-0.434-0.998-0.434
		c-0.419,0-0.766,0.152-1.039,0.458s-0.408,0.72-0.403,1.244H243.011z"/>
	<path fill="#4079BD" d="M202.946,30.481V20.46h2.023v3.944h3.965V20.46h2.023v10.021h-2.023V26.1h-3.965v4.382H202.946z"/>
	<path fill="#4079BD" d="M212.591,26.749c0-0.638,0.157-1.256,0.472-1.853s0.76-1.053,1.337-1.367
		c0.576-0.314,1.22-0.472,1.931-0.472c1.099,0,1.998,0.356,2.7,1.07c0.702,0.713,1.053,1.614,1.053,2.703
		c0,1.099-0.354,2.009-1.063,2.73c-0.709,0.723-1.602,1.084-2.677,1.084c-0.665,0-1.3-0.15-1.903-0.451
		c-0.604-0.301-1.063-0.742-1.378-1.322C212.749,28.29,212.591,27.583,212.591,26.749z M214.56,26.852
		c0,0.72,0.171,1.271,0.513,1.654s0.764,0.574,1.265,0.574s0.922-0.191,1.262-0.574c0.339-0.383,0.509-0.938,0.509-1.668
		c0-0.711-0.17-1.258-0.509-1.641c-0.34-0.383-0.761-0.574-1.262-0.574s-0.923,0.191-1.265,0.574S214.56,26.132,214.56,26.852z"/>
	<path fill="#4079BD" d="M221.444,23.222h1.771v0.991c0.634-0.771,1.388-1.155,2.263-1.155c0.465,0,0.868,0.096,1.21,0.287
		s0.622,0.48,0.841,0.868c0.319-0.388,0.663-0.677,1.032-0.868s0.764-0.287,1.183-0.287c0.533,0,0.984,0.108,1.354,0.324
		c0.369,0.217,0.645,0.535,0.827,0.954c0.132,0.31,0.198,0.812,0.198,1.504v4.642h-1.921v-4.149c0-0.72-0.066-1.185-0.198-1.395
		c-0.178-0.273-0.451-0.41-0.82-0.41c-0.269,0-0.521,0.082-0.759,0.246s-0.408,0.404-0.513,0.722
		c-0.104,0.316-0.157,0.816-0.157,1.5v3.486h-1.921v-3.979c0-0.706-0.034-1.162-0.103-1.367s-0.174-0.357-0.318-0.458
		c-0.143-0.101-0.338-0.15-0.584-0.15c-0.296,0-0.563,0.08-0.8,0.239s-0.407,0.39-0.509,0.69c-0.104,0.301-0.154,0.8-0.154,1.497
		v3.527h-1.921V23.222z"/>
	<path fill="#4079BD" d="M238.24,28.171l1.914,0.321c-0.246,0.702-0.635,1.236-1.166,1.603c-0.53,0.367-1.194,0.551-1.992,0.551
		c-1.263,0-2.196-0.412-2.803-1.237c-0.479-0.661-0.718-1.495-0.718-2.502c0-1.203,0.314-2.146,0.943-2.827
		c0.629-0.681,1.424-1.021,2.386-1.021c1.08,0,1.933,0.356,2.557,1.07c0.624,0.713,0.923,1.806,0.896,3.277h-4.813
		c0.014,0.569,0.169,1.013,0.465,1.33c0.296,0.316,0.665,0.475,1.107,0.475c0.301,0,0.554-0.082,0.759-0.246
		S238.135,28.535,238.24,28.171z M238.349,26.229c-0.014-0.556-0.157-0.979-0.431-1.268c-0.273-0.29-0.606-0.435-0.998-0.435
		c-0.419,0-0.766,0.152-1.039,0.458s-0.408,0.72-0.403,1.244H238.349z"/>
</g>
<g id="layer1_1_" transform="translate(0,-191.16665)" label="Layer 1" groupmode="layer">
	<g id="g4886_1_">
		<path id="path4551_1_" connector-curvature="0" nodetypes="ccccc" fill="#E6E6E5" d="M190.663,256.057
			c0.776,25.597-12.682,60.149,5.597,74.732c12.699,1.924,25.768,2.885,40.313,0c20.632-16.269,1.49-58.697,4.937-81
			L190.663,256.057z"/>
		
			<linearGradient id="path21_2_" gradientUnits="userSpaceOnUse" x1="-285.0991" y1="311.5241" x2="-280.2368" y2="311.2613" gradientTransform="matrix(5.0078 0 0 -5.0078 1611.7932 1848.8704)">
			<stop  offset="0" style="stop-color:#989898"/>
			<stop  offset="1" style="stop-color:#989898;stop-opacity:0"/>
		</linearGradient>
		<path id="path21_1_" connector-curvature="0" nodetypes="ccccc" fill="url(#path21_2_)" d="M190.663,256.057
			c0.776,25.597-12.682,60.149,5.597,74.732c12.699,1.924,25.768,2.885,40.313,0c20.632-16.269,1.49-58.697,4.937-81
			L190.663,256.057z"/>
		<path id="path23_1_" fill="#CDCCCC" d="M215.881,244.686c13.949-1.757,25.352,0.326,25.462,4.654
			c0.113,4.326-11.104,9.259-25.054,11.015c-13.949,1.757-25.349-0.327-25.462-4.653
			C190.713,251.376,201.933,246.443,215.881,244.686z"/>
		
			<linearGradient id="path27_2_" gradientUnits="userSpaceOnUse" x1="-840.3042" y1="-176.1473" x2="-793.364" y2="-174.9055" gradientTransform="matrix(1.325 0 0 -1.325 1296.5814 81.8023)">
			<stop  offset="0" style="stop-color:#BCBEC0"/>
			<stop  offset="1" style="stop-color:#6D6E71"/>
		</linearGradient>
		<path id="path27_1_" connector-curvature="0" fill="url(#path27_2_)" d="M245.811,295.642
			c-10.77,4.63-47.695,4.223-58.847,1.094c-1.088,13.986-0.025,26.617,9.295,34.054c12.699,1.924,25.768,2.885,40.313,0
			C246.199,323.202,247.166,309.92,245.811,295.642L245.811,295.642z"/>
		<g id="path29_1_" opacity="0.9" enable-background="new    ">
			<path fill="#3F8CCB" d="M218.628,249.615c0.839-0.175,1.679-0.156,1.874,0.044c0.195,0.201-0.326,0.507-1.165,0.684
				c-0.841,0.175-1.678,0.156-1.874-0.045C217.269,250.097,217.791,249.793,218.628,249.615z"/>
			<path fill="none" stroke="#010101" stroke-width="0.0041" d="M218.628,249.615c0.839-0.175,1.679-0.156,1.874,0.044
				c0.195,0.201-0.326,0.507-1.165,0.684c-0.841,0.175-1.678,0.156-1.874-0.045C217.269,250.097,217.791,249.793,218.628,249.615z"
				/>
		</g>
		<g id="ellipse4507_1_" opacity="0.9" enable-background="new    ">
			<path fill="#E21F26" d="M221.969,252.56c0.837-0.177,1.677-0.156,1.871,0.044c0.196,0.201-0.327,0.506-1.165,0.682
				s-1.678,0.157-1.874-0.044C220.607,253.042,221.127,252.737,221.969,252.56z"/>
			<path fill="none" stroke="#010101" stroke-width="0.0041" d="M221.969,252.56c0.837-0.177,1.677-0.156,1.871,0.044
				c0.196,0.201-0.327,0.506-1.165,0.682s-1.678,0.157-1.874-0.044C220.607,253.042,221.127,252.737,221.969,252.56z"/>
		</g>
		<g id="ellipse4509_1_" opacity="0.9" enable-background="new    ">
			<path fill="#56B947" d="M209.738,251.745c0.84-0.176,1.678-0.156,1.875,0.044c0.194,0.201-0.327,0.507-1.166,0.682
				c-0.841,0.177-1.679,0.156-1.874-0.045C208.376,252.226,208.898,251.922,209.738,251.745z"/>
			<path fill="none" stroke="#010101" stroke-width="0.0041" d="M209.738,251.745c0.84-0.176,1.678-0.156,1.875,0.044
				c0.194,0.201-0.327,0.507-1.166,0.682c-0.841,0.177-1.679,0.156-1.874-0.045C208.376,252.226,208.898,251.922,209.738,251.745z"
				/>
		</g>
		<g id="ellipse4511_1_" opacity="0.9" enable-background="new    ">
			<path fill="#F8EE4B" d="M212.795,254.646c0.84-0.175,1.678-0.156,1.874,0.045c0.195,0.201-0.326,0.506-1.165,0.683
				c-0.841,0.176-1.679,0.156-1.874-0.045C211.434,255.129,211.957,254.823,212.795,254.646z"/>
			<path fill="none" stroke="#010101" stroke-width="0.0041" d="M212.795,254.646c0.84-0.175,1.678-0.156,1.874,0.045
				c0.195,0.201-0.326,0.506-1.165,0.683c-0.841,0.176-1.679,0.156-1.874-0.045C211.434,255.129,211.957,254.823,212.795,254.646z"
				/>
		</g>
		
			<linearGradient id="path4561_2_" gradientUnits="userSpaceOnUse" x1="-840.0249" y1="-175.3392" x2="-814.2073" y2="-175.3392" gradientTransform="matrix(1.325 0 0 -1.325 1296.5814 81.8023)">
			<stop  offset="0" style="stop-color:#414042"/>
			<stop  offset="1" style="stop-color:#A7A9AC;stop-opacity:0"/>
		</linearGradient>
		<path id="path4561_1_" connector-curvature="0" fill="url(#path4561_2_)" d="M245.811,295.642
			c-10.77,4.63-47.695,4.223-58.847,1.094c-1.088,13.986-0.025,26.617,9.295,34.054c12.699,1.924,25.768,2.885,40.313,0
			C246.199,323.202,247.166,309.92,245.811,295.642L245.811,295.642z"/>
		<path id="path25_1_" connector-curvature="0" fill="#333333" d="M240.023,327.394
			c-16.194,2.823-31.642,2.011-46.913,0.335c0.926,1.097,1.971,2.122,3.149,3.061c12.699,1.924,25.768,2.885,40.313,0
			C237.88,329.76,239.02,328.623,240.023,327.394z"/>
		
			<linearGradient id="path4565_2_" gradientUnits="userSpaceOnUse" x1="-827.8877" y1="-185.9203" x2="-811.3536" y2="-187.0434" gradientTransform="matrix(1.325 0 0 -1.325 1296.5814 81.8023)">
			<stop  offset="0" style="stop-color:#1A1A1A"/>
			<stop  offset="1" style="stop-color:#676767"/>
		</linearGradient>
		<path id="path4565_1_" connector-curvature="0" fill="url(#path4565_2_)" d="M240.023,327.394
			c-16.194,2.823-31.642,2.011-46.913,0.335c0.926,1.097,1.971,2.122,3.149,3.061c12.699,1.924,25.768,2.885,40.313,0
			C237.88,329.76,239.02,328.623,240.023,327.394z"/>
		<g id="path4585_1_" connector-curvature="0" nodetypes="cc" opacity="0.81" enable-background="new    ">
			<path fill="none" stroke="#010101" stroke-width="0.0643" d="M186.964,296.736c15.932,3.023,44.643,3.304,58.847-1.094"/>
		</g>
		<g id="path4587_1_" connector-curvature="0" nodetypes="cc" opacity="0.81" enable-background="new    ">
			<path fill="none" stroke="#010101" stroke-width="0.0643" d="M193.11,327.729c16.045,1.538,31.939,2.468,46.913-0.335"/>
		</g>
		<g id="path4788_1_" connector-curvature="0" nodetypes="cc" opacity="0.86" enable-background="new    ">
			<path fill="none" stroke="#010101" stroke-width="0.0643" d="M196.259,330.79c13.652,1.682,27.271,3.077,40.313,0"/>
		</g>
	</g>
</g>
</svg>
